<?xml version="1.0" encoding="UTF-8"?>
<svg width="175px" height="44px" viewBox="0 0 175 44" version="1.1" xmlns="http://www.w3.org/2000/svg" xmlns:xlink="http://www.w3.org/1999/xlink">
    <!-- Generator: Sketch 52.4 (67378) - http://www.bohemiancoding.com/sketch -->
    <title>broad-institute-logo</title>
    <desc>Created with Sketch.</desc>
    <g id="Page-1" stroke="none" stroke-width="1" fill="none" fill-rule="evenodd">
        <g id="broad-institute-logo" transform="translate(-1.000000, 0.000000)" fill="#FFFFFE" fill-opacity="0.75">
            <polyline id="Fill-1" points="54.36 43.813 50.352 43.813 50.352 43.214 51.439 43.214 51.439 34.967 50.352 34.967 50.352 34.367 54.36 34.367 54.36 34.967 53.286 34.967 53.286 43.214 54.36 43.214 54.36 43.813"></polyline>
            <polyline id="Fill-2" points="69.979 43.972 68.977 43.972 63.994 36.957 63.994 43.214 65.126 43.214 65.126 43.813 61.891 43.813 61.891 43.214 63.079 43.214 63.079 35.698 62.621 34.967 61.59 34.967 61.59 34.367 64.439 34.367 69.077 40.966 69.077 34.967 67.946 34.967 67.946 34.367 71.182 34.367 71.182 34.967 69.979 34.967 69.979 43.972"></polyline>
            <path d="M79.8,43.943 L79.013,43.943 L79.013,41.367 L79.8,41.367 L79.8,42.427 C80.444,42.941 80.931,43.128 81.633,43.128 C82.52,43.128 83.165,42.598 83.165,41.854 C83.165,41.209 82.749,40.751 81.418,39.892 C80.014,39.004 79.843,38.86 79.472,38.431 C79.113,38.015 78.927,37.443 78.927,36.814 C78.927,35.24 80.087,34.194 81.834,34.194 C82.392,34.194 82.835,34.279 83.379,34.509 L83.379,34.079 L84.153,34.079 L84.153,36.527 L83.379,36.527 L83.379,35.54 C82.777,35.153 82.392,35.009 81.861,35.009 C81.118,35.009 80.545,35.54 80.545,36.213 C80.545,36.784 80.874,37.144 82.249,38.015 C82.906,38.444 83.322,38.704 83.48,38.819 C83.809,39.047 84.11,39.362 84.353,39.75 C84.625,40.191 84.753,40.666 84.753,41.224 C84.753,42.856 83.565,44 81.89,44 C81.06,44 80.459,43.827 79.8,43.442 L79.8,43.943" id="Fill-3"></path>
            <polyline id="Fill-4" points="98.512 43.813 93.902 43.813 93.902 43.214 95.291 43.214 95.291 35.212 92.814 35.212 92.814 36.399 92.027 36.399 92.027 33.966 92.814 33.966 92.814 34.367 99.6 34.367 99.6 33.966 100.387 33.966 100.387 36.399 99.6 36.399 99.6 35.212 97.137 35.212 97.137 43.214 98.512 43.214 98.512 43.813"></polyline>
            <polyline id="Fill-5" points="110.574 43.813 106.566 43.813 106.566 43.214 107.654 43.214 107.654 34.967 106.566 34.967 106.566 34.367 110.574 34.367 110.574 34.967 109.5 34.967 109.5 43.214 110.574 43.214 110.574 43.813"></polyline>
            <polyline id="Fill-6" points="122.967 43.813 118.357 43.813 118.357 43.214 119.746 43.214 119.746 35.212 117.27 35.212 117.27 36.399 116.48 36.399 116.48 33.966 117.27 33.966 117.27 34.367 124.055 34.367 124.055 33.966 124.844 33.966 124.844 36.399 124.055 36.399 124.055 35.212 121.592 35.212 121.592 43.214 122.967 43.214 122.967 43.813"></polyline>
            <path d="M141.736,34.967 L140.533,34.967 L140.533,40.35 C140.533,41.969 139.975,42.984 138.758,43.556 C138.129,43.842 137.428,44 136.682,44 C134.363,44 132.859,42.725 132.859,40.751 L132.859,34.967 L131.771,34.967 L131.771,34.367 L135.779,34.367 L135.779,34.967 L134.705,34.967 L134.705,40.307 C134.705,41.754 134.965,42.411 135.695,42.798 C136.037,42.968 136.453,43.069 136.883,43.069 C138.6,43.069 139.602,42.054 139.602,40.307 L139.602,34.98 L138.414,34.98 L138.414,34.367 L141.736,34.367 L141.736,34.967" id="Fill-7"></path>
            <polyline id="Fill-8" points="154.92 43.813 150.311 43.813 150.311 43.214 151.699 43.214 151.699 35.212 149.223 35.212 149.223 36.399 148.436 36.399 148.436 33.966 149.223 33.966 149.223 34.367 156.01 34.367 156.01 33.966 156.797 33.966 156.797 36.399 156.01 36.399 156.01 35.212 153.545 35.212 153.545 43.214 154.92 43.214 154.92 43.813"></polyline>
            <polyline id="Fill-9" points="170.541 43.813 163.727 43.813 163.727 43.214 164.814 43.214 164.814 34.967 163.727 34.967 163.727 34.367 169.623 34.367 169.623 33.966 170.396 33.966 170.396 36.241 169.639 36.241 169.639 35.212 166.66 35.212 166.66 38.589 168.951 38.589 168.951 37.615 169.725 37.602 169.725 40.421 168.951 40.437 168.951 39.434 166.66 39.434 166.66 42.968 169.768 42.968 169.768 41.91 170.541 41.91 170.541 43.813"></polyline>
            <path d="M55.2,25.467 L59.651,25.467 C62.99,25.467 65.017,23.479 65.017,20.221 C65.017,16.922 62.752,14.537 59.651,14.537 L55.2,14.537 L55.2,25.467 Z M55.2,12.748 L59.253,12.748 C61.836,12.748 63.667,10.642 63.667,7.7 C63.667,4.918 61.957,2.851 59.612,2.851 L55.2,2.851 L55.2,12.748 Z M48.721,27.255 L48.721,25.784 L51.703,25.784 L51.703,2.493 L48.721,2.493 L48.721,1.022 L60.804,1.022 C64.421,1.022 67.362,3.924 67.362,7.542 C67.362,10.522 64.739,13.146 61.52,13.424 C63.149,13.623 63.745,13.782 64.739,14.259 C67.203,15.412 68.634,17.716 68.634,20.419 C68.634,24.315 65.614,27.255 61.56,27.255 L48.721,27.255 Z" id="Fill-10" fill-rule="nonzero"></path>
            <path d="M79.168,13.663 L82.982,13.663 C86.003,13.663 88.11,11.437 88.11,8.177 C88.11,4.759 86.242,2.851 82.904,2.851 L79.168,2.851 L79.168,13.663 M95.662,27.255 L92.283,27.255 C89.939,27.255 89.502,27.018 88.189,24.91 L82.267,15.491 L79.168,15.491 L79.168,25.784 L82.148,25.784 L82.148,27.255 L72.688,27.255 L72.688,25.784 L75.669,25.784 L75.669,2.493 L72.688,2.493 L72.688,1.022 L83.738,1.022 C87.592,1.022 89.779,2.096 90.974,4.56 C91.488,5.633 91.766,6.826 91.766,8.097 C91.766,11.953 89.62,14.418 85.804,14.974 L91.529,23.798 C92.482,25.268 93.117,25.745 94.113,25.745 L95.662,25.745 L95.662,27.255" id="Fill-11" fill-rule="nonzero"></path>
            <path d="M100.67,14.14 C100.67,20.857 104.406,25.707 109.572,25.707 C114.66,25.707 118.357,20.817 118.357,14.14 C118.357,7.462 114.66,2.613 109.613,2.613 C104.406,2.613 100.67,7.382 100.67,14.14 M96.734,14.179 C96.734,6.706 102.537,0.546 109.572,0.546 C116.488,0.546 122.293,6.746 122.293,14.14 C122.293,21.532 116.488,27.771 109.572,27.771 C102.576,27.771 96.734,21.572 96.734,14.179" id="Fill-12" fill-rule="nonzero"></path>
            <path d="M138.727,16.723 L134.475,5.554 L129.982,16.723 L138.727,16.723 M148.066,27.255 L139.006,27.255 L139.006,25.784 L142.184,25.784 L139.402,18.631 L129.228,18.591 L126.324,25.745 L129.623,25.745 L129.623,27.255 L122.033,27.255 L122.033,25.745 L124.1,25.745 L134.434,0.188 L135.863,0.188 L145.801,25.745 L148.066,25.745 L148.066,27.255" id="Fill-13" fill-rule="nonzero"></path>
            <path d="M157.049,25.268 L161.818,25.268 C167.264,25.268 171.396,20.458 171.357,14.14 C171.357,8.019 167.146,3.05 161.898,3.05 L157.049,3.05 L157.049,25.268 M150.57,27.255 L150.57,25.784 L153.551,25.784 L153.551,2.493 L150.57,2.493 L150.57,1.022 L162.297,1.022 C169.451,1.022 175.293,6.905 175.293,14.099 C175.293,21.453 169.568,27.255 162.256,27.255 L150.57,27.255" id="Fill-14" fill-rule="nonzero"></path>
            <path d="M1.073,22.431 L1.073,22.303 C1.049,22.325 1.024,22.346 1,22.367 C1.024,22.389 1.049,22.41 1.073,22.431" id="Fill-15"></path>
            <path d="M21.644,27.187 C27.637,30.234 34.029,32.673 40.723,34.432 L40.723,27.468 C36.998,26.38 33.367,25.059 29.847,23.515 C27.041,24.616 24.303,25.842 21.644,27.187" id="Fill-16"></path>
            <path d="M13.394,31.904 C21.645,37.21 30.854,41.292 40.723,43.887 L40.723,36.91 C33.465,34.79 26.562,31.783 20.137,27.99 C17.829,29.21 15.575,30.51 13.394,31.904" id="Fill-17"></path>
            <path d="M29.84,21.423 C33.363,19.883 36.996,18.565 40.723,17.479 L40.723,10.469 C34.01,12.224 27.599,14.658 21.586,17.704 C24.261,19.066 27.016,20.308 29.84,21.423" id="Fill-18"></path>
            <path d="M11.731,12.934 C7.955,10.106 4.399,6.98 1.073,3.607 L1.073,12.96 C2.739,14.48 4.454,15.954 6.237,17.355 C8.015,15.813 9.847,14.337 11.731,12.934" id="Fill-19"></path>
            <path d="M40.723,24.977 L40.723,19.991 C37.982,20.71 35.292,21.539 32.658,22.48 C35.291,23.425 37.982,24.257 40.723,24.977" id="Fill-20"></path>
            <path d="M18.753,17.701 C16.606,16.382 14.515,14.978 12.483,13.488 C10.469,14.809 8.5,16.186 6.606,17.648 C8.511,19.129 10.481,20.537 12.509,21.874 C14.533,20.399 16.616,19.007 18.753,17.701" id="Fill-21"></path>
            <path d="M1.073,41.32 L1.073,43.913 L33.486,43.913 C26.013,41.017 18.989,37.154 12.563,32.455 C8.485,35.124 4.645,38.09 1.073,41.32" id="Fill-22"></path>
            <path d="M6.273,27.428 C4.48,28.826 2.752,30.295 1.073,31.813 L1.073,41.221 C4.424,37.848 8.004,34.723 11.805,31.898 C9.906,30.48 8.062,28.987 6.273,27.428" id="Fill-23"></path>
            <path d="M12.523,22.972 C10.508,24.292 8.537,25.668 6.641,27.13 C8.547,28.611 10.52,30.018 12.549,31.354 C14.575,29.88 16.66,28.488 18.798,27.183 C16.649,25.864 14.557,24.46 12.523,22.972" id="Fill-24"></path>
            <path d="M20.119,26.39 C22.528,24.972 25.002,23.659 27.538,22.466 C24.99,21.262 22.506,19.937 20.087,18.506 C17.781,19.727 15.53,21.027 13.351,22.422 C15.541,23.832 17.799,25.156 20.119,26.39" id="Fill-25"></path>
            <path d="M6.271,26.836 C8.049,25.294 9.882,23.818 11.769,22.416 C9.871,20.997 8.028,19.504 6.241,17.944 C4.458,19.334 2.739,20.793 1.073,22.303 L1.073,22.431 C2.747,23.959 4.479,25.43 6.271,26.836" id="Fill-26"></path>
            <path d="M1.073,13.059 L1.073,22.188 C2.633,20.618 4.243,19.101 5.904,17.646 C4.24,16.179 2.635,14.642 1.073,13.059" id="Fill-27"></path>
            <path d="M1.073,22.528 L1.073,31.713 C2.646,30.131 4.261,28.595 5.936,27.129 C4.263,25.655 2.642,24.12 1.073,22.528" id="Fill-28"></path>
            <path d="M6.641,27.13 C8.547,28.611 10.52,30.018 12.549,31.354 C14.575,29.88 16.66,28.488 18.798,27.183 C16.649,25.864 14.557,24.46 12.523,22.972 C10.508,24.292 8.537,25.668 6.641,27.13" id="Fill-29"></path>
            <path d="M18.753,17.701 C16.606,16.382 14.515,14.978 12.483,13.488 C10.469,14.809 8.5,16.186 6.606,17.648 C8.511,19.129 10.481,20.537 12.509,21.874 C14.533,20.399 16.616,19.007 18.753,17.701" id="Fill-30"></path>
            <path d="M20.119,26.39 C22.528,24.972 25.002,23.659 27.538,22.466 C24.99,21.262 22.506,19.937 20.087,18.506 C17.781,19.727 15.53,21.027 13.351,22.422 C15.541,23.832 17.799,25.156 20.119,26.39" id="Fill-31"></path>
            <path d="M40.69,0.972 C30.807,3.563 21.582,7.639 13.309,12.94 C15.497,14.351 17.752,15.675 20.069,16.909 C26.517,13.112 33.442,10.102 40.723,7.981 L40.723,0.972 L40.69,0.972" id="Fill-32"></path>
            <path d="M33.343,0.972 L1.073,0.972 L1.073,3.508 C4.614,6.74 8.417,9.72 12.468,12.393 C18.884,7.713 25.892,3.864 33.343,0.972" id="Fill-33"></path>
        </g>
    </g>
</svg>