<?xml version="1.0" encoding="UTF-8"?>
<svg width="175px" height="44px" viewBox="0 0 175 44" version="1.1" xmlns="http://www.w3.org/2000/svg" xmlns:xlink="http://www.w3.org/1999/xlink">
    <!-- Generator: Sketch 52.4 (67378) - http://www.bohemiancoding.com/sketch -->
    <title>broad-institute-logo</title>
    <desc>Created with Sketch.</desc>
    <g id="broad-institute-logo" stroke="none" stroke-width="1" fill="none" fill-rule="evenodd">
        <polyline id="Fill-1" fill="#FFFFFE" points="53.36 43.813 49.352 43.813 49.352 43.214 50.439 43.214 50.439 34.967 49.352 34.967 49.352 34.367 53.36 34.367 53.36 34.967 52.286 34.967 52.286 43.214 53.36 43.214 53.36 43.813"></polyline>
        <polyline id="Fill-2" fill="#FFFFFE" points="68.979 43.972 67.977 43.972 62.994 36.957 62.994 43.214 64.126 43.214 64.126 43.813 60.891 43.813 60.891 43.214 62.079 43.214 62.079 35.698 61.621 34.967 60.59 34.967 60.59 34.367 63.439 34.367 68.077 40.966 68.077 34.967 66.946 34.967 66.946 34.367 70.182 34.367 70.182 34.967 68.979 34.967 68.979 43.972"></polyline>
        <path d="M78.8,43.943 L78.013,43.943 L78.013,41.367 L78.8,41.367 L78.8,42.427 C79.444,42.941 79.931,43.128 80.633,43.128 C81.52,43.128 82.165,42.598 82.165,41.854 C82.165,41.209 81.749,40.751 80.418,39.892 C79.014,39.004 78.843,38.86 78.472,38.431 C78.113,38.015 77.927,37.443 77.927,36.814 C77.927,35.24 79.087,34.194 80.834,34.194 C81.392,34.194 81.835,34.279 82.379,34.509 L82.379,34.079 L83.153,34.079 L83.153,36.527 L82.379,36.527 L82.379,35.54 C81.777,35.153 81.392,35.009 80.861,35.009 C80.118,35.009 79.545,35.54 79.545,36.213 C79.545,36.784 79.874,37.144 81.249,38.015 C81.906,38.444 82.322,38.704 82.48,38.819 C82.809,39.047 83.11,39.362 83.353,39.75 C83.625,40.191 83.753,40.666 83.753,41.224 C83.753,42.856 82.565,44 80.89,44 C80.06,44 79.459,43.827 78.8,43.442 L78.8,43.943" id="Fill-3" fill="#FFFFFE"></path>
        <polyline id="Fill-4" fill="#FFFFFE" points="97.512 43.813 92.902 43.813 92.902 43.214 94.291 43.214 94.291 35.212 91.814 35.212 91.814 36.399 91.027 36.399 91.027 33.966 91.814 33.966 91.814 34.367 98.6 34.367 98.6 33.966 99.387 33.966 99.387 36.399 98.6 36.399 98.6 35.212 96.137 35.212 96.137 43.214 97.512 43.214 97.512 43.813"></polyline>
        <polyline id="Fill-5" fill="#FFFFFE" points="109.574 43.813 105.566 43.813 105.566 43.214 106.654 43.214 106.654 34.967 105.566 34.967 105.566 34.367 109.574 34.367 109.574 34.967 108.5 34.967 108.5 43.214 109.574 43.214 109.574 43.813"></polyline>
        <polyline id="Fill-6" fill="#FFFFFE" points="121.967 43.813 117.357 43.813 117.357 43.214 118.746 43.214 118.746 35.212 116.27 35.212 116.27 36.399 115.48 36.399 115.48 33.966 116.27 33.966 116.27 34.367 123.055 34.367 123.055 33.966 123.844 33.966 123.844 36.399 123.055 36.399 123.055 35.212 120.592 35.212 120.592 43.214 121.967 43.214 121.967 43.813"></polyline>
        <path d="M140.736,34.967 L139.533,34.967 L139.533,40.35 C139.533,41.969 138.975,42.984 137.758,43.556 C137.129,43.842 136.428,44 135.682,44 C133.363,44 131.859,42.725 131.859,40.751 L131.859,34.967 L130.771,34.967 L130.771,34.367 L134.779,34.367 L134.779,34.967 L133.705,34.967 L133.705,40.307 C133.705,41.754 133.965,42.411 134.695,42.798 C135.037,42.968 135.453,43.069 135.883,43.069 C137.6,43.069 138.602,42.054 138.602,40.307 L138.602,34.98 L137.414,34.98 L137.414,34.367 L140.736,34.367 L140.736,34.967" id="Fill-7" fill="#FFFFFE"></path>
        <polyline id="Fill-8" fill="#FFFFFE" points="153.92 43.813 149.311 43.813 149.311 43.214 150.699 43.214 150.699 35.212 148.223 35.212 148.223 36.399 147.436 36.399 147.436 33.966 148.223 33.966 148.223 34.367 155.01 34.367 155.01 33.966 155.797 33.966 155.797 36.399 155.01 36.399 155.01 35.212 152.545 35.212 152.545 43.214 153.92 43.214 153.92 43.813"></polyline>
        <polyline id="Fill-9" fill="#FFFFFE" points="169.541 43.813 162.727 43.813 162.727 43.214 163.814 43.214 163.814 34.967 162.727 34.967 162.727 34.367 168.623 34.367 168.623 33.966 169.396 33.966 169.396 36.241 168.639 36.241 168.639 35.212 165.66 35.212 165.66 38.589 167.951 38.589 167.951 37.615 168.725 37.602 168.725 40.421 167.951 40.437 167.951 39.434 165.66 39.434 165.66 42.968 168.768 42.968 168.768 41.91 169.541 41.91 169.541 43.813"></polyline>
        <path d="M54.2,25.467 L58.651,25.467 C61.99,25.467 64.017,23.479 64.017,20.221 C64.017,16.922 61.752,14.537 58.651,14.537 L54.2,14.537 L54.2,25.467 Z M54.2,12.748 L58.253,12.748 C60.836,12.748 62.667,10.642 62.667,7.7 C62.667,4.918 60.957,2.851 58.612,2.851 L54.2,2.851 L54.2,12.748 Z M47.721,27.255 L47.721,25.784 L50.703,25.784 L50.703,2.493 L47.721,2.493 L47.721,1.022 L59.804,1.022 C63.421,1.022 66.362,3.924 66.362,7.542 C66.362,10.522 63.739,13.146 60.52,13.424 C62.149,13.623 62.745,13.782 63.739,14.259 C66.203,15.412 67.634,17.716 67.634,20.419 C67.634,24.315 64.614,27.255 60.56,27.255 L47.721,27.255 Z" id="Fill-10" fill="#FFFFFE"></path>
        <path d="M78.168,13.663 L81.982,13.663 C85.003,13.663 87.11,11.437 87.11,8.177 C87.11,4.759 85.242,2.851 81.904,2.851 L78.168,2.851 L78.168,13.663 M94.662,27.255 L91.283,27.255 C88.939,27.255 88.502,27.018 87.189,24.91 L81.267,15.491 L78.168,15.491 L78.168,25.784 L81.148,25.784 L81.148,27.255 L71.688,27.255 L71.688,25.784 L74.669,25.784 L74.669,2.493 L71.688,2.493 L71.688,1.022 L82.738,1.022 C86.592,1.022 88.779,2.096 89.974,4.56 C90.488,5.633 90.766,6.826 90.766,8.097 C90.766,11.953 88.62,14.418 84.804,14.974 L90.529,23.798 C91.482,25.268 92.117,25.745 93.113,25.745 L94.662,25.745 L94.662,27.255" id="Fill-11" fill="#FFFFFE"></path>
        <path d="M99.67,14.14 C99.67,20.857 103.406,25.707 108.572,25.707 C113.66,25.707 117.357,20.817 117.357,14.14 C117.357,7.462 113.66,2.613 108.613,2.613 C103.406,2.613 99.67,7.382 99.67,14.14 M95.734,14.179 C95.734,6.706 101.537,0.546 108.572,0.546 C115.488,0.546 121.293,6.746 121.293,14.14 C121.293,21.532 115.488,27.771 108.572,27.771 C101.576,27.771 95.734,21.572 95.734,14.179" id="Fill-12" fill="#FFFFFE"></path>
        <path d="M137.727,16.723 L133.475,5.554 L128.982,16.723 L137.727,16.723 M147.066,27.255 L138.006,27.255 L138.006,25.784 L141.184,25.784 L138.402,18.631 L128.228,18.591 L125.324,25.745 L128.623,25.745 L128.623,27.255 L121.033,27.255 L121.033,25.745 L123.1,25.745 L133.434,0.188 L134.863,0.188 L144.801,25.745 L147.066,25.745 L147.066,27.255" id="Fill-13" fill="#FFFFFE"></path>
        <path d="M156.049,25.268 L160.818,25.268 C166.264,25.268 170.396,20.458 170.357,14.14 C170.357,8.019 166.146,3.05 160.898,3.05 L156.049,3.05 L156.049,25.268 M149.57,27.255 L149.57,25.784 L152.551,25.784 L152.551,2.493 L149.57,2.493 L149.57,1.022 L161.297,1.022 C168.451,1.022 174.293,6.905 174.293,14.099 C174.293,21.453 168.568,27.255 161.256,27.255 L149.57,27.255" id="Fill-14" fill="#FFFFFE"></path>
        <path d="M0.073,22.431 L0.073,22.303 C0.049,22.325 0.024,22.346 0,22.367 C0.024,22.389 0.049,22.41 0.073,22.431" id="Fill-15" fill="#FFFFFE"></path>
        <path d="M20.644,27.187 C26.637,30.234 33.029,32.673 39.723,34.432 L39.723,27.468 C35.998,26.38 32.367,25.059 28.847,23.515 C26.041,24.616 23.303,25.842 20.644,27.187" id="Fill-16" fill="#FFFFFE"></path>
        <path d="M12.394,31.904 C20.645,37.21 29.854,41.292 39.723,43.887 L39.723,36.91 C32.465,34.79 25.562,31.783 19.137,27.99 C16.829,29.21 14.575,30.51 12.394,31.904" id="Fill-17" fill="#FFFFFE"></path>
        <path d="M28.84,21.423 C32.363,19.883 35.996,18.565 39.723,17.479 L39.723,10.469 C33.01,12.224 26.599,14.658 20.586,17.704 C23.261,19.066 26.016,20.308 28.84,21.423" id="Fill-18" fill="#FFFFFE"></path>
        <path d="M10.731,12.934 C6.955,10.106 3.399,6.98 0.073,3.607 L0.073,12.96 C1.739,14.48 3.454,15.954 5.237,17.355 C7.015,15.813 8.847,14.337 10.731,12.934" id="Fill-19" fill="#FFFFFE"></path>
        <path d="M39.723,24.977 L39.723,19.991 C36.982,20.71 34.292,21.539 31.658,22.48 C34.291,23.425 36.982,24.257 39.723,24.977" id="Fill-20" fill="#FFFFFE"></path>
        <path d="M17.753,17.701 C15.606,16.382 13.515,14.978 11.483,13.488 C9.469,14.809 7.5,16.186 5.606,17.648 C7.511,19.129 9.481,20.537 11.509,21.874 C13.533,20.399 15.616,19.007 17.753,17.701" id="Fill-21" fill="#FFFFFE"></path>
        <path d="M0.073,41.32 L0.073,43.913 L32.486,43.913 C25.013,41.017 17.989,37.154 11.563,32.455 C7.485,35.124 3.645,38.09 0.073,41.32" id="Fill-22" fill="#FFFFFE"></path>
        <path d="M5.273,27.428 C3.48,28.826 1.752,30.295 0.073,31.813 L0.073,41.221 C3.424,37.848 7.004,34.723 10.805,31.898 C8.906,30.48 7.062,28.987 5.273,27.428" id="Fill-23" fill="#FFFFFE"></path>
        <path d="M11.523,22.972 C9.508,24.292 7.537,25.668 5.641,27.13 C7.547,28.611 9.52,30.018 11.549,31.354 C13.575,29.88 15.66,28.488 17.798,27.183 C15.649,25.864 13.557,24.46 11.523,22.972" id="Fill-24" fill="#FFFFFE"></path>
        <path d="M19.119,26.39 C21.528,24.972 24.002,23.659 26.538,22.466 C23.99,21.262 21.506,19.937 19.087,18.506 C16.781,19.727 14.53,21.027 12.351,22.422 C14.541,23.832 16.799,25.156 19.119,26.39" id="Fill-25" fill="#FFFFFE"></path>
        <path d="M5.271,26.836 C7.049,25.294 8.882,23.818 10.769,22.416 C8.871,20.997 7.028,19.504 5.241,17.944 C3.458,19.334 1.739,20.793 0.073,22.303 L0.073,22.431 C1.747,23.959 3.479,25.43 5.271,26.836" id="Fill-26" fill="#FFFFFE"></path>
        <path d="M0.073,13.059 L0.073,22.188 C1.633,20.618 3.243,19.101 4.904,17.646 C3.24,16.179 1.635,14.642 0.073,13.059" id="Fill-27" fill="#FFFFFE"></path>
        <path d="M0.073,22.528 L0.073,31.713 C1.646,30.131 3.261,28.595 4.936,27.129 C3.263,25.655 1.642,24.12 0.073,22.528" id="Fill-28" fill="#FFFFFE"></path>
        <path d="M5.641,27.13 C7.547,28.611 9.52,30.018 11.549,31.354 C13.575,29.88 15.66,28.488 17.798,27.183 C15.649,25.864 13.557,24.46 11.523,22.972 C9.508,24.292 7.537,25.668 5.641,27.13" id="Fill-29" fill="#FFFFFE"></path>
        <path d="M17.753,17.701 C15.606,16.382 13.515,14.978 11.483,13.488 C9.469,14.809 7.5,16.186 5.606,17.648 C7.511,19.129 9.481,20.537 11.509,21.874 C13.533,20.399 15.616,19.007 17.753,17.701" id="Fill-30" fill="#FFFFFE"></path>
        <path d="M19.119,26.39 C21.528,24.972 24.002,23.659 26.538,22.466 C23.99,21.262 21.506,19.937 19.087,18.506 C16.781,19.727 14.53,21.027 12.351,22.422 C14.541,23.832 16.799,25.156 19.119,26.39" id="Fill-31" fill="#FFFFFE"></path>
        <path d="M39.69,0.972 C29.807,3.563 20.582,7.639 12.309,12.94 C14.497,14.351 16.752,15.675 19.069,16.909 C25.517,13.112 32.442,10.102 39.723,7.981 L39.723,0.972 L39.69,0.972" id="Fill-32" fill="#FFFFFE"></path>
        <path d="M32.343,0.972 L0.073,0.972 L0.073,3.508 C3.614,6.74 7.417,9.72 11.468,12.393 C17.884,7.713 24.892,3.864 32.343,0.972" id="Fill-33" fill="#FFFFFE"></path>
    </g>
</svg>