<?xml version="1.0" encoding="UTF-8"?>
<svg width="175px" height="44px" viewBox="0 0 175 44" version="1.1" xmlns="http://www.w3.org/2000/svg" xmlns:xlink="http://www.w3.org/1999/xlink">
    <!-- Generator: Sketch 52.4 (67378) - http://www.bohemiancoding.com/sketch -->
    <title>broad-institute-logo-color-black</title>
    <desc>Created with Sketch.</desc>
    <defs>
        <polygon id="path-1" points="0 0.972 39.65 0.972 39.65 43.913 0 43.913"></polygon>
    </defs>
    <g id="broad-institute-logo-color-black" stroke="none" stroke-width="1" fill="none" fill-rule="evenodd">
        <polyline id="Fill-1" fill="#1A1919" points="53.287 43.813 49.279 43.813 49.279 43.214 50.366 43.214 50.366 34.967 49.279 34.967 49.279 34.367 53.287 34.367 53.287 34.967 52.213 34.967 52.213 43.214 53.287 43.214 53.287 43.813"></polyline>
        <polyline id="Fill-2" fill="#1A1919" points="68.906 43.972 67.904 43.972 62.921 36.957 62.921 43.214 64.053 43.214 64.053 43.813 60.818 43.813 60.818 43.214 62.006 43.214 62.006 35.698 61.548 34.967 60.517 34.967 60.517 34.367 63.366 34.367 68.004 40.966 68.004 34.967 66.873 34.967 66.873 34.367 70.109 34.367 70.109 34.967 68.906 34.967 68.906 43.972"></polyline>
        <path d="M78.728,43.943 L77.94,43.943 L77.94,41.367 L78.728,41.367 L78.728,42.427 C79.372,42.941 79.858,43.128 80.56,43.128 C81.447,43.128 82.092,42.598 82.092,41.854 C82.092,41.209 81.677,40.751 80.345,39.892 C78.941,39.004 78.77,38.86 78.399,38.431 C78.04,38.015 77.854,37.443 77.854,36.814 C77.854,35.24 79.014,34.194 80.761,34.194 C81.319,34.194 81.762,34.279 82.306,34.509 L82.306,34.079 L83.08,34.079 L83.08,36.527 L82.306,36.527 L82.306,35.54 C81.705,35.153 81.319,35.009 80.789,35.009 C80.045,35.009 79.472,35.54 79.472,36.213 C79.472,36.784 79.801,37.144 81.176,38.015 C81.834,38.444 82.249,38.704 82.407,38.819 C82.736,39.047 83.037,39.362 83.28,39.75 C83.552,40.191 83.681,40.666 83.681,41.224 C83.681,42.856 82.492,44 80.817,44 C79.987,44 79.386,43.827 78.728,43.442 L78.728,43.943" id="Fill-3" fill="#1A1919"></path>
        <polyline id="Fill-4" fill="#1A1919" points="97.439 43.813 92.83 43.813 92.83 43.214 94.218 43.214 94.218 35.212 91.742 35.212 91.742 36.399 90.955 36.399 90.955 33.966 91.742 33.966 91.742 34.367 98.527 34.367 98.527 33.966 99.314 33.966 99.314 36.399 98.527 36.399 98.527 35.212 96.064 35.212 96.064 43.214 97.439 43.214 97.439 43.813"></polyline>
        <polyline id="Fill-5" fill="#1A1919" points="109.501 43.813 105.494 43.813 105.494 43.214 106.582 43.214 106.582 34.967 105.494 34.967 105.494 34.367 109.501 34.367 109.501 34.967 108.427 34.967 108.427 43.214 109.501 43.214 109.501 43.813"></polyline>
        <polyline id="Fill-6" fill="#1A1919" points="121.894 43.813 117.285 43.813 117.285 43.214 118.673 43.214 118.673 35.212 116.197 35.212 116.197 36.399 115.408 36.399 115.408 33.966 116.197 33.966 116.197 34.367 122.982 34.367 122.982 33.966 123.771 33.966 123.771 36.399 122.982 36.399 122.982 35.212 120.519 35.212 120.519 43.214 121.894 43.214 121.894 43.813"></polyline>
        <path d="M140.664,34.967 L139.46,34.967 L139.46,40.35 C139.46,41.969 138.902,42.984 137.685,43.556 C137.056,43.842 136.355,44 135.609,44 C133.291,44 131.787,42.725 131.787,40.751 L131.787,34.967 L130.699,34.967 L130.699,34.367 L134.707,34.367 L134.707,34.967 L133.632,34.967 L133.632,40.307 C133.632,41.754 133.892,42.411 134.623,42.798 C134.964,42.968 135.38,43.069 135.81,43.069 C137.527,43.069 138.529,42.054 138.529,40.307 L138.529,34.98 L137.341,34.98 L137.341,34.367 L140.664,34.367 L140.664,34.967" id="Fill-7" fill="#1A1919"></path>
        <polyline id="Fill-8" fill="#1A1919" points="153.847 43.813 149.238 43.813 149.238 43.214 150.626 43.214 150.626 35.212 148.15 35.212 148.15 36.399 147.363 36.399 147.363 33.966 148.15 33.966 148.15 34.367 154.937 34.367 154.937 33.966 155.724 33.966 155.724 36.399 154.937 36.399 154.937 35.212 152.472 35.212 152.472 43.214 153.847 43.214 153.847 43.813"></polyline>
        <polyline id="Fill-9" fill="#1A1919" points="169.468 43.813 162.654 43.813 162.654 43.214 163.742 43.214 163.742 34.967 162.654 34.967 162.654 34.367 168.55 34.367 168.55 33.966 169.324 33.966 169.324 36.241 168.566 36.241 168.566 35.212 165.587 35.212 165.587 38.589 167.878 38.589 167.878 37.615 168.652 37.602 168.652 40.421 167.878 40.437 167.878 39.434 165.587 39.434 165.587 42.968 168.695 42.968 168.695 41.91 169.468 41.91 169.468 43.813"></polyline>
        <path d="M54.127,25.467 L58.578,25.467 C61.917,25.467 63.944,23.479 63.944,20.221 C63.944,16.922 61.679,14.537 58.578,14.537 L54.127,14.537 L54.127,25.467 Z M54.127,12.748 L58.181,12.748 C60.764,12.748 62.594,10.642 62.594,7.7 C62.594,4.918 60.884,2.851 58.539,2.851 L54.127,2.851 L54.127,12.748 Z M47.648,27.255 L47.648,25.784 L50.63,25.784 L50.63,2.493 L47.648,2.493 L47.648,1.022 L59.731,1.022 C63.348,1.022 66.289,3.924 66.289,7.542 C66.289,10.522 63.666,13.146 60.447,13.424 C62.076,13.623 62.672,13.782 63.666,14.259 C66.13,15.412 67.562,17.716 67.562,20.419 C67.562,24.315 64.541,27.255 60.487,27.255 L47.648,27.255 Z" id="Fill-10" fill="#1A1919"></path>
        <path d="M78.095,13.663 L81.91,13.663 C84.93,13.663 87.037,11.437 87.037,8.177 C87.037,4.759 85.169,2.851 81.831,2.851 L78.095,2.851 L78.095,13.663 M94.589,27.255 L91.21,27.255 C88.866,27.255 88.429,27.018 87.116,24.91 L81.194,15.491 L78.095,15.491 L78.095,25.784 L81.075,25.784 L81.075,27.255 L71.615,27.255 L71.615,25.784 L74.596,25.784 L74.596,2.493 L71.615,2.493 L71.615,1.022 L82.665,1.022 C86.52,1.022 88.706,2.096 89.901,4.56 C90.415,5.633 90.693,6.826 90.693,8.097 C90.693,11.953 88.547,14.418 84.731,14.974 L90.456,23.798 C91.41,25.268 92.044,25.745 93.04,25.745 L94.589,25.745 L94.589,27.255" id="Fill-11" fill="#1A1919"></path>
        <path d="M99.597,14.14 C99.597,20.857 103.334,25.707 108.5,25.707 C113.587,25.707 117.285,20.817 117.285,14.14 C117.285,7.462 113.587,2.613 108.541,2.613 C103.334,2.613 99.597,7.382 99.597,14.14 M95.662,14.179 C95.662,6.706 101.464,0.546 108.5,0.546 C115.416,0.546 121.22,6.746 121.22,14.14 C121.22,21.532 115.416,27.771 108.5,27.771 C101.503,27.771 95.662,21.572 95.662,14.179" id="Fill-12" fill="#1A1919"></path>
        <path d="M137.654,16.723 L133.402,5.554 L128.91,16.723 L137.654,16.723 M146.994,27.255 L137.933,27.255 L137.933,25.784 L141.111,25.784 L138.33,18.631 L128.156,18.591 L125.251,25.745 L128.55,25.745 L128.55,27.255 L120.96,27.255 L120.96,25.745 L123.027,25.745 L133.361,0.188 L134.791,0.188 L144.728,25.745 L146.994,25.745 L146.994,27.255" id="Fill-13" fill="#1A1919"></path>
        <path d="M155.976,25.268 L160.746,25.268 C166.191,25.268 170.324,20.458 170.285,14.14 C170.285,8.019 166.074,3.05 160.826,3.05 L155.976,3.05 L155.976,25.268 M149.498,27.255 L149.498,25.784 L152.478,25.784 L152.478,2.493 L149.498,2.493 L149.498,1.022 L161.224,1.022 C168.378,1.022 174.22,6.905 174.22,14.099 C174.22,21.453 168.496,27.255 161.183,27.255 L149.498,27.255" id="Fill-14" fill="#1A1919"></path>
        <polygon id="Fill-15" fill="#006FAC" points="0 43.913 39.65 43.913 39.65 0.972 0 0.972"></polygon>
        <g id="Group-18">
            <mask id="mask-2" fill="white">
                <use xlink:href="#path-1"></use>
            </mask>
            <g id="Clip-17"></g>
            <path d="M117.964,31.318 C115.937,29.845 113.853,28.453 111.713,27.148 C113.859,25.829 115.952,24.427 117.983,22.937 C120.001,24.258 121.962,25.648 123.861,27.11 C121.96,28.589 119.987,29.984 117.964,31.318 Z M64.696,47.109 C45.269,47.109 27.235,41.495 12.321,31.904 C14.502,30.51 16.756,29.21 19.064,27.99 C32.544,35.948 48.112,40.495 64.696,40.495 C81.301,40.495 96.883,35.938 110.372,27.961 C112.681,29.181 114.932,30.487 117.115,31.881 C102.192,41.488 84.15,47.109 64.696,47.109 Z M5.568,27.13 C7.464,25.668 9.435,24.292 11.45,22.972 C13.484,24.46 15.577,25.864 17.725,27.183 C15.587,28.488 13.502,29.88 11.477,31.354 C9.447,30.018 7.475,28.611 5.568,27.13 Z M-0.073,22.367 C1.616,20.833 3.36,19.354 5.168,17.944 C6.956,19.504 8.798,20.997 10.696,22.416 C8.81,23.818 6.977,25.294 5.198,26.836 C3.38,25.409 1.623,23.918 -0.073,22.367 Z M11.41,13.488 C13.442,14.978 15.534,16.382 17.68,17.701 C15.543,19.007 13.461,20.399 11.436,21.874 C9.409,20.537 7.438,19.129 5.534,17.648 C7.427,16.186 9.396,14.809 11.41,13.488 Z M64.742,-2.252 C84.189,-2.252 102.246,3.344 117.2,12.916 C115.013,14.327 112.756,15.645 110.441,16.879 C96.931,8.936 81.344,4.4 64.742,4.4 C48.118,4.4 32.516,8.947 18.996,16.909 C16.679,15.675 14.424,14.351 12.236,12.94 C27.2,3.352 45.267,-2.252 64.742,-2.252 Z M102.966,22.44 C105.515,21.234 108.002,19.911 110.422,18.478 C112.729,19.698 114.977,21.004 117.158,22.398 C114.969,23.809 112.709,25.127 110.392,26.359 C107.98,24.943 105.504,23.633 102.966,22.44 Z M28.774,23.515 C39.826,28.361 51.961,31.042 64.696,31.042 C77.444,31.042 89.589,28.358 100.646,23.502 C103.458,24.605 106.2,25.833 108.864,27.18 C95.727,33.863 80.686,37.654 64.696,37.654 C48.727,37.654 33.699,33.863 20.571,27.187 C23.23,25.842 25.968,24.616 28.774,23.515 Z M26.465,22.466 C23.929,23.659 21.455,24.972 19.046,26.39 C16.726,25.156 14.468,23.832 12.278,22.422 C14.458,21.027 16.708,19.727 19.014,18.506 C21.434,19.937 23.917,21.262 26.465,22.466 Z M97.85,22.458 C87.551,26.155 76.382,28.199 64.696,28.199 C53.032,28.199 41.872,26.172 31.585,22.48 C41.891,18.799 53.06,16.768 64.742,16.768 C76.401,16.768 87.559,18.784 97.85,22.458 Z M64.742,13.91 C51.99,13.91 39.839,16.584 28.767,21.423 C25.943,20.308 23.188,19.066 20.514,17.704 C33.678,11.036 48.737,7.257 64.742,7.257 C80.723,7.257 95.764,11.038 108.918,17.696 C106.25,19.056 103.506,20.298 100.689,21.411 C89.623,16.581 77.482,13.91 64.742,13.91 Z M123.897,17.627 C121.998,19.105 120.026,20.502 118.004,21.837 C115.979,20.364 113.896,18.972 111.758,17.667 C113.903,16.347 115.995,14.944 118.024,13.454 C120.041,14.774 122.001,16.165 123.897,17.627 Z M129.516,22.329 C127.824,23.88 126.066,25.367 124.252,26.794 C122.469,25.251 120.632,23.774 118.742,22.371 C120.634,20.954 122.473,19.463 124.256,17.904 C126.069,19.316 127.823,20.794 129.516,22.329 Z M130.753,32.977 C128.781,30.916 126.717,28.95 124.576,27.08 C126.289,25.569 127.948,23.995 129.551,22.361 C129.955,22.727 130.357,23.093 130.753,23.465 C130.377,23.072 129.995,22.687 129.612,22.3 C129.764,22.145 129.919,21.994 130.07,21.837 C129.911,21.985 129.743,22.123 129.583,22.271 C127.978,20.651 126.319,19.093 124.608,17.597 C126.493,15.933 128.318,14.196 130.07,12.382 C128.22,14.104 126.283,15.741 124.286,17.312 C122.504,15.769 120.669,14.292 118.78,12.888 C122.793,9.88 126.57,6.551 130.07,2.928 C126.36,6.384 122.327,9.526 118.044,12.355 C102.928,1.348 84.558,-5.11 64.742,-5.11 C44.903,-5.11 26.52,1.361 11.395,12.393 C6.976,9.477 2.836,6.211 -0.973,2.633 C2.624,6.388 6.516,9.832 10.659,12.934 C8.774,14.337 6.942,15.813 5.164,17.355 C3.037,15.684 0.987,13.928 -0.973,12.087 C0.884,14.025 2.824,15.877 4.832,17.646 C3.125,19.141 1.47,20.698 -0.13,22.314 C-0.411,22.057 -0.695,21.802 -0.973,21.542 C-0.709,21.817 -0.439,22.085 -0.172,22.357 C-0.439,22.627 -0.709,22.894 -0.973,23.167 C-0.695,22.908 -0.402,22.665 -0.121,22.41 C1.485,24.045 3.147,25.618 4.863,27.129 C2.845,28.894 0.896,30.742 -0.973,32.677 C0.999,30.84 3.063,29.094 5.201,27.428 C6.989,28.987 8.833,30.48 10.732,31.898 C6.565,34.994 2.65,38.436 -0.973,42.188 C2.865,38.61 7.044,35.364 11.491,32.455 C26.563,43.478 44.906,49.95 64.696,49.95 C84.508,49.95 102.863,43.466 117.943,32.421 C122.527,35.417 126.817,38.784 130.753,42.486 C127.035,38.601 123.003,35.043 118.705,31.854 C120.598,30.438 122.439,28.947 124.223,27.389 C126.492,29.155 128.672,31.019 130.753,32.977 Z" id="Fill-16" fill="#FFFFFE" mask="url(#mask-2)"></path>
        </g>
    </g>
</svg>