<?xml version="1.0" encoding="UTF-8"?>
<svg width="288px" height="54px" viewBox="0 0 288 54" version="1.1" xmlns="http://www.w3.org/2000/svg" xmlns:xlink="http://www.w3.org/1999/xlink">
    <!-- Generator: Sketch 52.4 (67378) - http://www.bohemiancoding.com/sketch -->
    <title>ucsd-logo</title>
    <desc>Created with Sketch.</desc>
    <defs>
        <polygon id="path-1" points="0.406 0.819 48.724 0.819 48.724 42.94 0.406 42.94"></polygon>
    </defs>
    <g id="ucsd-logo" stroke="none" stroke-width="1" fill="none" fill-rule="evenodd">
        <path d="M34.432,27.983 C34.432,36.495 33.188,42.959 20.26,42.959 C7.401,42.959 5.406,36.745 5.406,27.983 L5.406,7.287 C5.406,2.623 3.422,2.189 0,2.189 L0,0.949 L16.344,0.949 L16.344,2.189 C12.99,2.189 10.938,2.623 10.938,7.287 L10.938,27.983 C10.938,34.321 12.432,40.532 20.505,40.532 C29.464,40.532 30.885,35.376 30.885,27.983 L30.885,7.287 C30.885,2.623 28.839,2.189 25.484,2.189 L25.484,0.949 L39.839,0.949 L39.839,2.189 C36.422,2.189 34.432,2.623 34.432,7.287 L34.432,27.983" id="Fill-1" fill="#141F34"></path>
        <path d="M68.802,41.28 C65.755,42.402 62.276,42.959 57.677,42.959 C45.25,42.959 39.281,33.514 39.281,20.276 C39.281,8.777 43.005,0.326 56.307,0.326 C61.282,0.326 65.505,1.321 68.245,2.063 L68.802,11.824 L67.25,11.824 C66.437,8.342 63.958,2.748 56.245,2.748 C46.245,2.748 45.432,13.376 45.432,19.777 C45.432,27.795 47.177,40.162 60.787,40.162 C64.948,40.162 67.188,39.23 68.802,38.607 L68.802,41.28" id="Fill-2" fill="#141F34"></path>
        <path d="M102.183,9.896 C101.62,6.605 99.13,2.748 92.484,2.748 C88.318,2.748 84.651,5.42 84.651,9.524 C84.651,15.055 92.052,16.858 97.459,20.027 C102.37,22.886 105.656,25.433 105.656,31.339 C105.656,39.23 98.818,42.959 90.307,42.959 C86.083,42.959 81.177,42.027 79.62,41.777 L79.183,33.014 L80.74,33.014 C81.235,36.308 84.156,40.162 90.807,40.162 C96.276,40.162 99.818,36.621 99.818,32.329 C99.818,25.62 89.5,23.568 83.719,19.154 C80.99,17.043 79.682,14.808 79.682,10.826 C79.682,3.371 85.839,0.326 93.661,0.326 C97.833,0.326 100.5,0.824 103.302,1.381 L103.735,9.896 L102.183,9.896" id="Fill-3" fill="#141F34"></path>
        <path d="M122.875,30.063 C120.276,30.12 113.198,30.618 113.198,35.761 C113.198,38.633 115.084,40.568 116.963,40.568 C120.557,40.568 122.875,37.084 122.875,33.326 L122.875,30.063 Z M131.057,42.391 C130.396,42.558 129.01,42.889 127.026,42.889 C123.818,42.889 122.875,41.233 122.875,38.855 L122.76,38.855 C121.057,41.342 118.677,42.889 114.911,42.889 C111.099,42.889 108.281,40.235 108.281,36.642 C108.281,28.625 118.677,28.625 122.875,28.235 L122.875,26.139 C122.875,22.266 122.818,18.178 118.177,18.178 C114.75,18.178 114.307,19.616 114.307,21.387 C114.307,23.652 112.651,24.261 111.708,24.261 C110.213,24.261 109.057,23.264 109.057,21.771 C109.057,18.178 114.417,16.355 118.234,16.355 C125.807,16.355 127.188,20.001 127.188,25.142 L127.188,38.855 C127.188,40.79 127.849,41.451 129.568,41.451 C130.062,41.451 130.562,41.342 131.057,41.233 L131.057,42.391 Z" id="Fill-4" fill="#141F34"></path>
        <path d="M132.276,41.397 C134.594,41.397 136.474,40.902 136.474,37.308 L136.474,22.214 C136.474,18.896 133.875,18.729 132.276,18.62 L132.276,17.681 L140.787,16.355 L140.787,23.652 L140.901,23.652 C141.672,21.605 144.156,16.355 149.631,16.355 C155.495,16.355 156.047,19.558 156.047,24.702 L156.047,37.308 C156.047,40.902 157.927,41.397 160.245,41.397 L160.245,42.34 L147.531,42.34 L147.531,41.397 C149.849,41.397 151.734,40.902 151.734,37.308 L151.734,25.917 C151.734,21.162 151.683,19.006 148.025,19.006 C144.771,19.006 140.787,25.251 140.787,30.506 L140.787,37.308 C140.787,40.902 142.661,41.397 144.99,41.397 L144.99,42.34 L132.276,42.34 L132.276,41.397" id="Fill-5" fill="#141F34"></path>
        <path d="M177.51,34.693 C177.51,39.23 178.01,39.914 181.12,39.914 C191.808,39.914 196.218,34.196 196.218,21.704 C196.218,10.266 192.928,3.371 181.12,3.371 C178.01,3.371 177.51,3.746 177.51,8.592 L177.51,34.693 Z M166.573,41.092 C169.932,41.092 171.984,40.657 171.984,35.998 L171.984,7.287 C171.984,2.623 169.932,2.189 166.573,2.189 L166.573,0.949 L181.12,0.949 C191.433,0.949 202.37,3.186 202.37,21.704 C202.37,40.162 190.875,42.34 181.12,42.34 L166.573,42.34 L166.573,41.092 Z" id="Fill-6" fill="#141F34"></path>
        <path d="M207.677,8.116 C207.677,6.344 209.057,4.965 210.822,4.965 C212.594,4.965 213.974,6.344 213.974,8.116 C213.974,9.886 212.594,11.266 210.822,11.266 C209.057,11.266 207.677,9.886 207.677,8.116 Z M204.63,41.397 C206.958,41.397 208.839,40.902 208.839,37.308 L208.839,22.214 C208.839,18.896 206.296,18.729 204.63,18.62 L204.63,17.681 L213.151,16.355 L213.151,37.308 C213.151,40.902 215.026,41.397 217.349,41.397 L217.349,42.34 L204.63,42.34 L204.63,41.397 Z" id="Fill-7" fill="#141F34"></path>
        <g id="Group-11" transform="translate(217.000000, 11.000000)">
            <mask id="mask-2" fill="white">
                <use xlink:href="#path-1"></use>
            </mask>
            <g id="Clip-9"></g>
            <path d="M16.162,13.92 C16.162,10.993 15.162,7.178 10.912,7.178 C6.708,7.178 4.994,11.876 4.994,13.92 L16.162,13.92 Z M20.365,30.892 C19.037,31.391 17.156,31.889 13.781,31.889 C5.213,31.889 0.406,27.188 0.406,17.902 C0.406,9.829 3.666,5.355 11.625,5.355 C16.599,5.355 21.084,8.118 21.084,14.529 L21.084,15.746 L4.994,15.746 C4.994,20.389 7.256,29.845 16.494,29.845 C17.76,29.845 19.255,29.678 20.365,29.125 L20.365,30.892 Z" id="Fill-8" fill="#141F34" mask="url(#mask-2)"></path>
            <path d="M34.292,21.219 C38.937,21.219 39.546,17.574 39.546,14.638 C39.546,10.496 38.109,7.178 34.125,7.178 C29.755,7.178 28.932,10.387 28.932,13.592 C28.932,17.792 30.312,21.219 34.292,21.219 Z M29.485,30.839 C28.375,31.667 26.833,32.607 26.833,35.095 C26.833,38.357 29.755,41.178 34.568,41.178 C39.599,41.178 44.245,38.58 44.245,34.6 C44.245,31.78 41.927,30.839 39.156,30.839 L29.485,30.839 Z M39.052,26.915 C41.698,26.915 47.839,27.027 47.839,33.162 C47.839,39.464 41.646,43 34.292,43 C28.875,43 23.239,40.954 23.239,35.979 C23.239,32.552 25.781,31.06 27.552,30.173 C26.609,29.623 25.172,28.574 25.172,26.25 C25.172,24.204 26.943,22.105 27.552,21.438 C26.276,20.389 24.344,18.733 24.344,14.032 C24.344,6.902 29.536,5.355 34.786,5.355 C37.333,5.355 38.714,5.795 40.49,6.732 C41.37,4.636 42.692,0.819 46.068,0.819 C47.62,0.819 48.724,1.813 48.724,3.469 C48.724,4.967 47.781,5.961 46.125,5.961 C44.688,5.961 44.354,5.186 43.635,5.186 C42.422,5.186 41.927,6.793 41.646,7.673 C42.307,8.391 44.13,10.438 44.13,14.311 C44.13,19.891 40.651,23.045 34.021,23.045 C31.807,23.045 30.198,22.766 28.99,22.215 C28.651,22.657 27.994,23.485 27.994,24.701 C27.994,26.915 30.755,26.915 32.526,26.915 L39.052,26.915 Z" id="Fill-10" fill="#141F34" mask="url(#mask-2)"></path>
        </g>
        <path d="M276.442,41.063 C281.974,41.063 283.083,34.212 283.083,29.624 C283.083,25.032 281.974,18.178 276.442,18.178 C270.916,18.178 269.813,25.032 269.813,29.624 C269.813,34.212 270.916,41.063 276.442,41.063 Z M264.895,29.624 C264.895,21.326 269.37,16.355 276.442,16.355 C283.526,16.355 288,21.326 288,29.624 C288,37.915 283.526,42.889 276.442,42.889 C269.37,42.889 264.895,37.915 264.895,29.624 Z" id="Fill-12" fill="#141F34"></path>
        <path d="M237.416,51.868 L0,51.868 L0,53.271 L238.755,53.271 C238.25,52.842 237.797,52.37 237.416,51.868" id="Fill-13" fill="#BC8C33"></path>
        <path d="M287.557,51.868 L265.721,51.868 C265.226,52.374 264.674,52.84 264.076,53.271 L287.557,53.271 L287.557,51.868" id="Fill-14" fill="#BC8C33"></path>
    </g>
</svg>